<?xml version="1.0" encoding="utf-8"?>
<!-- Svg Vector Icons : http://www.onlinewebfonts.com/icon -->
<!DOCTYPE svg PUBLIC "-//W3C//DTD SVG 1.1//EN" "http://www.w3.org/Graphics/SVG/1.1/DTD/svg11.dtd">
<svg version="1.1" xmlns="http://www.w3.org/2000/svg" xmlns:xlink="http://www.w3.org/1999/xlink" x="0px" y="0px" viewBox="0 0 256 256" enable-background="new 0 0 256 256" xml:space="preserve">
<metadata> Svg Vector Icons : http://www.onlinewebfonts.com/icon </metadata>
<g><g><g><path fill="#000000" d="M100,11.2l-1.2,1.2V128v115.6l1.2,1.2c1.4,1.4,3.5,1.6,5,0.4c0.8-0.6,1-1.5,1.2-6.3l0.2-5.6H128h21.6l0.1,3.2c0.1,7.2,0.1,7.4,1.3,8.4c1.5,1.3,3.6,1.3,5.1-0.2l1.2-1.2V128V12.4l-1.2-1.2c-1.5-1.5-3.8-1.6-5.2-0.2c-0.8,0.8-1,1.7-1.1,5.3c-0.1,2.4-0.1,5.2-0.1,6.1l-0.1,1.7H128h-21.6l-0.2-6.3c-0.2-5.6-0.3-6.4-1.2-7C103.5,9.6,101.4,9.8,100,11.2z M149.6,40v7.9H128h-21.6l-0.1-7.4c-0.1-4.1,0-7.7,0.1-8c0.2-0.5,4.5-0.6,21.7-0.5l21.5,0.1V40L149.6,40z M149.6,64.5v8.7H128h-21.6l-0.1-8.2c-0.1-4.5,0-8.4,0.1-8.8c0.2-0.5,4.5-0.6,21.7-0.5l21.5,0.1V64.5L149.6,64.5z M149.7,89.9l0.1,8.8H128h-21.8v-8.6c0-4.8,0.1-8.8,0.3-8.9c0.1-0.2,9.9-0.3,21.7-0.2l21.4,0.1L149.7,89.9z M149.7,115.2l0.1,8.8H128h-21.8v-8.6c0-4.8,0.1-8.8,0.3-8.9c0.1-0.2,9.9-0.3,21.7-0.2l21.4,0.1L149.7,115.2z M149.7,140.8l-0.1,8.8H128h-21.6l-0.1-8.8l-0.1-8.8h21.8h21.8L149.7,140.8z M149.6,166l0,8.8H128h-21.6l-0.1-8.8l-0.1-8.8h21.8h21.8L149.6,166z M149.7,190c0.1,4,0,7.9-0.1,8.8l-0.3,1.6l-21.4-0.1l-21.4-0.1l-0.1-8.2c-0.1-4.5,0-8.4,0.1-8.8c0.2-0.5,4.5-0.6,21.7-0.5l21.5,0.1L149.7,190z M149.7,216.9l0.1,8.8H128h-21.8v-8.6c0-4.8,0.1-8.8,0.3-8.9c0.1-0.2,9.9-0.3,21.7-0.2l21.4,0.1L149.7,216.9z"/></g></g></g>
</svg>